<svg width="440" height="161" viewBox="0 0 440 161" fill="none" xmlns="http://www.w3.org/2000/svg">
<g clip-path="url(#clip0_716_83)">
<path d="M0 0H440V161H0V0Z" fill="#174891"/>
<path d="M63.1201 59.6769H82.2001V112.859H96.8801V59.6769H115.96V46.9194H63.1201V59.6769Z" fill="white"/>
<path d="M45.8999 132.48H296.2V26.2129H45.8999V132.48ZM214.68 30.963H290.72V127.652H214.68V30.963ZM133.08 30.963H209.12V127.652H133.08V30.963ZM51.4799 30.963H127.52V127.652H51.4799V30.963Z" fill="white"/>
<path d="M249.12 46.8418H231.14V112.781H244.9V92.6368L247.86 92.7144C266.42 92.7144 275.46 81.0233 275.46 69.4873C275.52 58.2033 266.66 46.8418 249.12 46.8418ZM249.12 80.461H244.82V59.6768H249.8C257.64 59.7544 261.62 62.3718 262.12 69.9914C261.68 77.8436 257.04 80.2865 249.12 80.461Z" fill="white"/>
<path d="M171.64 80.8682L171.04 82.904L170.54 80.8682L154.92 46.1826H139.64L171.12 114.817L202.6 46.1826H187.32L171.64 80.8682Z" fill="white"/>
<path d="M381.86 74.4123C393 71.1357 398.74 62.3916 398.74 51.6699C398.74 35.3062 385.74 24.2549 362.62 24.2549C337.3 24.2549 323.04 35.946 322.54 55.6638H349.04C349.04 48.3739 354.18 44.2054 361.1 44.3023C368.02 44.3799 373 48.7229 373.16 55.1791C373.66 69.6622 365.48 72.2796 359.82 75.0521C365.98 78.7359 375.6 80.0349 375.6 98.9384C375.6 106.636 370.54 112.278 361.34 112.278C352.56 112.278 348 107.372 348 98.1241V96.321H320.24V97.7945C320.24 120.13 336.36 134.361 361.84 134.361C386.14 134.361 402.76 120.207 402.76 99.5201C402.96 85.6187 395.62 76.7001 381.86 74.4123Z" fill="white"/>
</g>
<defs>
<clipPath id="clip0_716_83">
<rect width="440" height="161" fill="white"/>
</clipPath>
</defs>
</svg>
