<svg width="574" height="210" viewBox="0 0 574 210" fill="none" xmlns="http://www.w3.org/2000/svg">
<g clip-path="url(#clip0_716_83)">
<path d="M0 0H574V210H0V0Z" fill="#174891"/>
<path d="M82.3428 77.8394H107.234V147.207H126.384V77.8394H151.275V61.1992H82.3428V77.8394Z" fill="white"/>
<path d="M59.8784 172.8H386.406V34.1909H59.8784V172.8ZM280.06 40.3867H379.257V166.503H280.06V40.3867ZM173.609 40.3867H272.806V166.503H173.609V40.3867ZM67.1578 40.3867H166.355V166.503H67.1578V40.3867Z" fill="white"/>
<path d="M324.988 61.0981H301.533V147.106H319.483V120.831L323.345 120.932C347.557 120.932 359.35 105.683 359.35 90.6357C359.428 75.9175 347.87 61.0981 324.988 61.0981ZM324.988 104.949H319.379V77.8395H325.876C336.103 77.9406 341.295 81.3546 341.948 91.2932C341.374 101.535 335.32 104.722 324.988 104.949Z" fill="white"/>
<path d="M223.912 105.48L223.129 108.136L222.477 105.48L202.1 60.2383H182.167L223.234 149.761L264.301 60.2383H244.367L223.912 105.48Z" fill="white"/>
<path d="M498.154 97.0594C512.686 92.7856 520.174 81.3802 520.174 67.3954C520.174 46.0515 503.215 31.6367 473.054 31.6367C440.023 31.6367 421.42 46.886 420.768 72.6049H455.338C455.338 63.0963 462.044 57.6591 471.071 57.7856C480.099 57.8867 486.595 63.5515 486.804 71.9727C487.456 90.8636 476.785 94.2776 469.401 97.8939C477.437 102.699 489.987 104.393 489.987 129.05C489.987 139.09 483.386 146.449 471.384 146.449C459.93 146.449 453.982 140.051 453.982 127.988V125.636H417.768V127.558C417.768 156.691 438.797 175.253 472.037 175.253C503.737 175.253 525.419 156.792 525.419 129.809C525.68 111.676 516.104 100.044 498.154 97.0594Z" fill="white"/>
</g>
<defs>
<clipPath id="clip0_716_83">
<rect width="574" height="210" fill="white"/>
</clipPath>
</defs>
</svg>
