<?xml version="1.0" encoding="utf-8"?>
<!-- Generator: Adobe Illustrator 27.3.1, SVG Export Plug-In . SVG Version: 6.00 Build 0)  -->
<svg version="1.1"
	 id="svg32" xmlns:inkscape="http://www.inkscape.org/namespaces/inkscape" xmlns:dc="http://purl.org/dc/elements/1.1/" xmlns:sodipodi="http://sodipodi.sourceforge.net/DTD/sodipodi-0.dtd" xmlns:cc="http://creativecommons.org/ns#" xmlns:svg="http://www.w3.org/2000/svg" xmlns:rdf="http://www.w3.org/1999/02/22-rdf-syntax-ns#"
	 xmlns="http://www.w3.org/2000/svg" xmlns:xlink="http://www.w3.org/1999/xlink" x="0px" y="0px" viewBox="0 0 2200 830.4"
	 style="enable-background:new 0 0 2200 830.4;" xml:space="preserve">
<style type="text/css">
	.st0{fill:#174891;}
	.st1{fill:#FFFFFF;}
</style>
<sodipodi:namedview  bordercolor="#666666" borderopacity="1" fit-margin-bottom="0" fit-margin-left="0" fit-margin-right="0" fit-margin-top="0" gridtolerance="10" guidetolerance="10" id="namedview34" inkscape:current-layer="svg32" inkscape:cx="-22.375524" inkscape:cy="6.7482145" inkscape:pageopacity="0" inkscape:pageshadow="2" inkscape:window-height="1018" inkscape:window-maximized="1" inkscape:window-width="1920" inkscape:window-x="-8" inkscape:window-y="-8" inkscape:zoom="0.81603774" objecttolerance="10" pagecolor="#ffffff" showgrid="false">
	</sodipodi:namedview>
<path id="path2" inkscape:connector-curvature="0" class="st0" d="M0,0h2200v830.4H0V0z"/>
<path id="path4" inkscape:connector-curvature="0" class="st1" d="M315.6,307.8H411v274.3h73.4V307.8h95.4V242H315.6V307.8z"/>
<path id="path6" inkscape:connector-curvature="0" class="st1" d="M229.5,683.3H1481V135.2H229.5V683.3z M1073.4,159.7h380.2v498.7
	h-380.2V159.7z M665.4,159.7h380.2v498.7H665.4L665.4,159.7L665.4,159.7z M257.4,159.7h380.2v498.7H257.4V159.7z"/>
<path id="path8" inkscape:connector-curvature="0" class="st1" d="M1245.6,241.6h-89.9v340.1h68.8V477.8l14.8,0.4
	c92.8,0,138-60.3,138-119.8C1377.6,300.2,1333.3,241.6,1245.6,241.6L1245.6,241.6z M1245.6,415h-21.5V307.8h24.9
	c39.2,0.4,59.1,13.9,61.6,53.2C1308.4,401.5,1285.2,414.1,1245.6,415L1245.6,415z"/>
<path id="path10" inkscape:connector-curvature="0" class="st1" d="M858.2,417.1l-3,10.5l-2.5-10.5l-78.1-178.9h-76.4l157.4,354
	l157.4-354h-76.4L858.2,417.1z"/>
<path id="path12" inkscape:connector-curvature="0" class="st1" d="M1909.3,383.8c55.7-16.9,84.4-62,84.4-117.3
	c0-84.4-65-141.4-180.6-141.4c-126.6,0-197.9,60.3-200.4,162h132.5c0-37.6,25.7-59.1,60.3-58.6c34.6,0.4,59.5,22.8,60.3,56.1
	c2.5,74.7-38.4,88.2-66.7,102.5c30.8,19,78.9,25.7,78.9,123.2c0,39.7-25.3,68.8-71.3,68.8c-43.9,0-66.7-25.3-66.7-73v-9.3h-138.8
	v7.6c0,115.2,80.6,188.6,208,188.6c121.5,0,204.6-73,204.6-179.7C2014.8,441.6,1978.1,395.6,1909.3,383.8L1909.3,383.8z"/>
</svg>
