<svg width="572" height="239" viewBox="0 0 572 239" fill="none" xmlns="http://www.w3.org/2000/svg">
<g clip-path="url(#clip0_724_120)">
<mask id="mask0_724_120" style="mask-type:luminance" maskUnits="userSpaceOnUse" x="-99" y="-813" width="2087" height="2083">
<path d="M-98.8315 1269.57H1987.75V-812.46H-98.8315V1269.57Z" fill="white"/>
</mask>
<g mask="url(#mask0_724_120)">
<path d="M478.313 172.566C485.705 147.481 571.471 133.613 571.471 71.052C571.471 29.7384 534.8 12.6212 493.396 12.6212C465.301 12.6212 439.569 21.7709 418.275 35.6389L432.769 72.8218C449.626 63.3783 467.667 56.5929 484.818 56.5929C501.086 56.5929 514.69 62.7872 514.69 75.7738C514.69 117.381 419.754 116.496 419.754 195.584C419.754 200.897 420.052 206.503 420.939 212.404H570.883V172.566H478.313Z" fill="#FF9F00"/>
<path d="M89.4182 3.63315C112.938 1.77243 138.4 0.856058 159.057 0.527284V31.0578C149.263 31.4076 138.334 32.0616 128.074 33.1494C91.9911 37.0002 85.254 44.8033 80.89 79.3946C79.0673 93.8116 78.5274 109.096 78.5274 119.519C78.5274 129.9 79.0673 145.216 80.89 159.587C85.254 194.165 91.9911 201.975 128.074 205.826C138.334 206.924 149.263 207.578 159.057 207.928V238.472C138.4 238.143 112.938 237.22 89.4182 235.352C24.6904 230.19 12.6149 219.69 4.75963 173.319C1.49275 154.002 0.528809 133.45 0.528809 119.494C0.528809 105.536 1.49275 84.9907 4.75963 65.67C12.6149 19.2919 24.6904 8.80959 89.4182 3.63315Z" fill="#FF9F00"/>
<path d="M353.028 119.495C353.028 133.45 352.068 154.002 348.797 173.319C340.946 219.691 328.87 230.19 264.139 235.353C240.622 237.221 215.164 238.144 194.511 238.473V207.928C204.301 207.578 215.23 206.924 225.48 205.823C261.57 201.975 268.303 194.165 272.664 159.588C274.486 145.216 275.03 129.9 275.03 119.519C275.03 109.097 274.486 93.8121 272.664 79.395C268.303 44.8038 261.57 37.0007 225.48 33.1498C215.23 32.0621 204.301 31.408 194.511 31.0583V0.527772C215.164 0.856546 240.622 1.77292 264.139 3.63364C328.87 8.81008 340.946 19.2924 348.797 65.6705C352.068 84.9912 353.028 105.536 353.028 119.495Z" fill="#FF9F00"/>
</g>
</g>
<defs>
<clipPath id="clip0_724_120">
<rect width="572" height="239" fill="white"/>
</clipPath>
</defs>
</svg>
