<svg width="80" height="80" viewBox="0 0 80 80" fill="none" xmlns="http://www.w3.org/2000/svg">
<rect width="80" height="80" rx="40" fill="white"/>
<g clip-path="url(#clip0_720_109)">
<mask id="mask0_720_109" style="mask-type:luminance" maskUnits="userSpaceOnUse" x="7" y="28" width="66" height="24">
<path d="M73 28H7V52H73V28Z" fill="white"/>
</mask>
<g mask="url(#mask0_720_109)">
<path d="M7 28H73V52H7V28Z" fill="#174891"/>
<path d="M16.4678 36.8959H19.3298V44.8237H21.5317V36.8959H24.3938V34.9942H16.4678V36.8959Z" fill="white"/>
<path d="M13.8848 47.7486H51.4298V31.9075H13.8848V47.7486ZM39.2018 32.6156H50.6077V47.0289H39.2018V32.6156ZM26.9618 32.6156H38.3677V47.0289H26.9618V32.6156ZM14.7218 32.6156H26.1277V47.0289H14.7218V32.6156Z" fill="white"/>
<path d="M44.3678 34.9827H41.6709V44.8121H43.7348V41.8093L44.1789 41.8208C46.9629 41.8208 48.3188 40.0781 48.3188 38.3584C48.3278 36.6763 46.9988 34.9827 44.3678 34.9827ZM44.3678 39.9942H43.7229V36.896H44.4699C45.6458 36.9075 46.2428 37.2977 46.3179 38.4335C46.2519 39.604 45.5558 39.9683 44.3678 39.9942Z" fill="white"/>
<path d="M32.7457 40.0549L32.6557 40.3584L32.5807 40.0549L30.2377 34.8844H27.9458L32.6678 45.1156L37.3898 34.8844H35.0977L32.7457 40.0549Z" fill="white"/>
<path d="M64.2791 39.0925C65.95 38.604 66.811 37.3006 66.811 35.7023C66.811 33.263 64.861 31.6156 61.3931 31.6156C57.5951 31.6156 55.456 33.3584 55.3811 36.2977H59.356C59.356 35.211 60.1271 34.5896 61.1651 34.604C62.2031 34.6156 62.95 35.263 62.9741 36.2254C63.049 38.3844 61.8221 38.7746 60.973 39.1879C61.897 39.737 63.3401 39.9306 63.3401 42.7485C63.3401 43.896 62.5811 44.737 61.201 44.737C59.884 44.737 59.2001 44.0058 59.2001 42.6272V42.3584H55.0361V42.578C55.0361 45.9075 57.4541 48.0289 61.2761 48.0289C64.9211 48.0289 67.4141 45.9191 67.4141 42.8353C67.4441 40.7629 66.3431 39.4336 64.2791 39.0925Z" fill="white"/>
</g>
</g>
<defs>
<clipPath id="clip0_720_109">
<rect width="66" height="24" fill="white" transform="translate(7 28)"/>
</clipPath>
</defs>
</svg>
