<svg width="80" height="80" viewBox="0 0 80 80" fill="none" xmlns="http://www.w3.org/2000/svg">
<rect width="80" height="80" fill="white"/>
<g clip-path="url(#clip0_698_91)">
<mask id="mask0_698_91" style="mask-type:luminance" maskUnits="userSpaceOnUse" x="6" y="6" width="67" height="67">
<path d="M73 6H6V73H73V6Z" fill="white"/>
</mask>
<g mask="url(#mask0_698_91)">
<path d="M24.3896 35.2305V43.7694H25.939V37.7457L28.033 43.7694H28.7797H29.5265L31.6204 37.7457V43.7694H33.1697V35.2305H30.7497L28.7797 41.2241L26.8097 35.2305H24.3896Z" fill="black"/>
<path d="M34.0332 35.2305V36.8606H34.1669H36.2797V43.7694H36.3869H38.0148H38.122V36.8606H40.2236H40.3573V35.2305H40.2236H34.1669H34.0332Z" fill="black"/>
<path d="M40.9062 35.2305L43.7048 43.7694H44.7943H45.8836L48.6822 35.2305H46.6796L44.7943 41.2788L42.9089 35.2305H40.9062Z" fill="black"/>
<path d="M50.4403 35.2305L48.3096 41.8538L47.6934 43.7694H49.4142L49.8631 42.3228L50.028 41.8538H52.6991L52.864 42.3228L53.3389 43.7694H55.0896L54.4733 41.8538L52.3427 35.2305H50.4403ZM51.3914 37.0483L52.3296 40.1493H50.4533L51.3914 37.0483Z" fill="black"/>
<path d="M39.4999 17.2666C39.1155 17.2666 38.7334 17.2764 38.3538 17.2955C37.9743 17.3147 37.5973 17.3433 37.2231 17.3812C36.8489 17.419 36.4774 17.4661 36.109 17.5222C35.7406 17.5783 35.375 17.6435 35.0129 17.7174C34.6507 17.7913 34.2917 17.874 33.9362 17.9652C33.5807 18.0564 33.2286 18.1562 32.8803 18.2643C32.532 18.3724 32.1873 18.4888 31.8466 18.6134C31.5059 18.7378 31.1692 18.8704 30.8366 19.0108C30.504 19.1512 30.1755 19.2995 29.8514 19.4554C29.5274 19.6113 29.2076 19.7748 28.8925 19.9458C28.5775 20.1166 28.2671 20.2949 27.9615 20.4803C27.6559 20.6658 27.3551 20.8584 27.0595 21.058C26.7639 21.2575 26.4733 21.464 26.1881 21.6772C25.9028 21.8904 25.6228 22.1102 25.3485 22.3366C25.074 22.563 24.8053 22.7958 24.5422 23.0348C24.2791 23.2738 24.0217 23.5191 23.7705 23.7705C23.5191 24.0217 23.2738 24.2791 23.0348 24.5422C22.7958 24.8053 22.5629 25.074 22.3366 25.3485C22.1102 25.6228 21.8904 25.9028 21.6772 26.1881C21.464 26.4733 21.2575 26.7639 21.058 27.0595C20.8584 27.3551 20.6658 27.656 20.4803 27.9615C20.2949 28.2671 20.1166 28.5775 19.9458 28.8925C19.7748 29.2076 19.6113 29.5273 19.4554 29.8515C19.2995 30.1755 19.1512 30.504 19.0108 30.8366C18.8704 31.1692 18.7378 31.5059 18.6134 31.8466C18.4888 32.1873 18.3724 32.532 18.2643 32.8803C18.1562 33.2287 18.0564 33.5807 17.9652 33.9362C17.874 34.2917 17.7913 34.6507 17.7174 35.0129C17.6435 35.3751 17.5783 35.7406 17.5222 36.109C17.4661 36.4775 17.419 36.8489 17.3812 37.2231C17.3433 37.5973 17.3147 37.9744 17.2955 38.3538C17.2764 38.7334 17.2666 39.1156 17.2666 39.5C17.2666 39.8843 17.2764 40.2664 17.2955 40.646C17.3147 41.0256 17.3433 41.4025 17.3812 41.7768C17.419 42.151 17.4661 42.5223 17.5222 42.8908C17.5783 43.2593 17.6435 43.6247 17.7174 43.987C17.7913 44.3492 17.874 44.7081 17.9652 45.0636C18.0564 45.4192 18.1562 45.7712 18.2643 46.1196C18.3724 46.4679 18.4888 46.8125 18.6134 47.1532C18.7378 47.4939 18.8704 47.8307 19.0108 48.1632C19.1512 48.4959 19.2995 48.8244 19.4554 49.1484C19.6113 49.4725 19.7748 49.7923 19.9458 50.1073C20.1166 50.4224 20.2949 50.7328 20.4803 51.0384C20.6658 51.344 20.8584 51.6447 21.058 51.9404C21.2575 52.236 21.464 52.5265 21.6772 52.8118C21.8904 53.097 22.1102 53.377 22.3366 53.6514C22.5629 53.9258 22.7958 54.1946 23.0348 54.4576C23.2738 54.7208 23.5191 54.9781 23.7705 55.2294C24.0217 55.4807 24.2791 55.726 24.5422 55.965C24.8053 56.2041 25.074 56.437 25.3485 56.6633C25.6228 56.8896 25.9028 57.1095 26.1881 57.3226C26.4733 57.5359 26.7639 57.7424 27.0595 57.9419C27.3551 58.1415 27.6559 58.3341 27.9615 58.5195C28.2671 58.705 28.5775 58.8832 28.8925 59.0541C29.2076 59.225 29.5274 59.3886 29.8514 59.5444C30.1755 59.7004 30.504 59.8486 30.8366 59.9891C31.1692 60.1294 31.5059 60.262 31.8466 60.3865C32.1873 60.511 32.532 60.6275 32.8803 60.7355C33.2286 60.8437 33.5807 60.9434 33.9362 61.0346C34.2917 61.1259 34.6507 61.2085 35.0129 61.2824C35.375 61.3564 35.7406 61.4215 36.109 61.4776C36.4774 61.5338 36.8489 61.5808 37.2231 61.6187C37.5973 61.6565 37.9743 61.6852 38.3538 61.7044C38.7334 61.7235 39.1155 61.7332 39.4999 61.7332C39.8843 61.7332 40.2664 61.7235 40.6459 61.7044C41.0255 61.6852 41.4025 61.6565 41.7767 61.6187C42.151 61.5808 42.5223 61.5338 42.8908 61.4776C43.2593 61.4215 43.6247 61.3564 43.987 61.2824C44.3492 61.2085 44.7081 61.1259 45.0636 61.0346C45.4191 60.9434 45.7712 60.8437 46.1195 60.7355C46.4679 60.6275 46.8124 60.511 47.1532 60.3865C47.4939 60.262 47.8306 60.1294 48.1632 59.9891C48.4958 59.8486 48.8243 59.7004 49.1484 59.5444C49.4724 59.3886 49.7922 59.225 50.1072 59.0541C50.4223 58.8832 50.7327 58.705 51.0383 58.5195C51.3439 58.3341 51.6446 58.1415 51.9403 57.9419C52.236 57.7424 52.5264 57.5359 52.8117 57.3226C53.0969 57.1095 53.3769 56.8896 53.6514 56.6633C53.9257 56.437 54.1946 56.2041 54.4576 55.965C54.7207 55.726 54.9781 55.4807 55.2294 55.2294C55.4806 54.9781 55.7259 54.7208 55.965 54.4576C56.2041 54.1946 56.4369 53.9258 56.6633 53.6514C56.8896 53.377 57.1094 53.097 57.3226 52.8118C57.5358 52.5265 57.7423 52.236 57.9418 51.9404C58.1414 51.6447 58.334 51.344 58.5194 51.0384C58.7049 50.7328 58.8832 50.4224 59.0541 50.1073C59.2249 49.7923 59.3885 49.4725 59.5444 49.1484C59.7003 48.8244 59.8485 48.4959 59.989 48.1632C60.1294 47.8307 60.2619 47.4939 60.3865 47.1532C60.5109 46.8125 60.6274 46.4679 60.7355 46.1196C60.8436 45.7712 60.9433 45.4192 61.0346 45.0636C61.1258 44.7081 61.2085 44.3492 61.2823 43.987C61.3563 43.6247 61.4214 43.2593 61.4776 42.8908C61.5337 42.5223 61.5807 42.151 61.6186 41.7768C61.6565 41.4025 61.6851 41.0256 61.7043 40.646C61.7234 40.2664 61.7332 39.8843 61.7332 39.5C61.7332 39.1156 61.7234 38.7334 61.7043 38.3538C61.6851 37.9744 61.6565 37.5973 61.6186 37.2231C61.5807 36.8489 61.5337 36.4775 61.4776 36.109C61.4214 35.7406 61.3563 35.3751 61.2823 35.0129C61.2085 34.6507 61.1258 34.2917 61.0346 33.9362C60.9433 33.5807 60.8436 33.2287 60.7355 32.8803C60.6274 32.532 60.5109 32.1873 60.3865 31.8466C60.2619 31.5059 60.1294 31.1692 59.989 30.8366C59.8485 30.504 59.7003 30.1755 59.5444 29.8515C59.3885 29.5273 59.2249 29.2076 59.0541 28.8925C58.8832 28.5775 58.7049 28.2671 58.5194 27.9615C58.334 27.656 58.1414 27.3551 57.9418 27.0595C57.7423 26.7639 57.5358 26.4733 57.3226 26.1881C57.1094 25.9028 56.8896 25.6228 56.6633 25.3485C56.4369 25.074 56.2041 24.8053 55.965 24.5422C55.7259 24.2791 55.4806 24.0217 55.2294 23.7705C54.9781 23.5191 54.7207 23.2738 54.4576 23.0348C54.1946 22.7958 53.9257 22.563 53.6514 22.3366C53.3769 22.1102 53.0969 21.8904 52.8117 21.6772C52.5264 21.464 52.236 21.2575 51.9403 21.058C51.6446 20.8584 51.3439 20.6658 51.0383 20.4803C50.7327 20.2949 50.4223 20.1166 50.1072 19.9458C49.7922 19.7748 49.4724 19.6113 49.1484 19.4554C48.8243 19.2995 48.4958 19.1512 48.1632 19.0108C47.8306 18.8704 47.4939 18.7378 47.1532 18.6134C46.8124 18.4888 46.4679 18.3724 46.1195 18.2643C45.7712 18.1562 45.4191 18.0564 45.0636 17.9652C44.7081 17.874 44.3492 17.7913 43.987 17.7174C43.6247 17.6435 43.2593 17.5783 42.8908 17.5222C42.5223 17.4661 42.151 17.419 41.7767 17.3812C41.4025 17.3433 41.0255 17.3147 40.6459 17.2955C40.2664 17.2764 39.8843 17.2666 39.4999 17.2666ZM39.4999 17.2666C39.8838 17.2666 40.2654 17.2767 40.6446 17.296C41.0236 17.3153 41.3998 17.344 41.7729 17.382C42.1465 17.42 42.5168 17.4673 42.8838 17.5235C43.2509 17.5797 43.6152 17.6452 43.9765 17.7193C44.3377 17.7934 44.6955 17.8761 45.0497 17.9674C45.404 18.0588 45.7551 18.1588 46.1026 18.2671C46.4499 18.3753 46.7937 18.492 47.1335 18.6167C47.4733 18.7413 47.8094 18.8741 48.1416 19.0148C48.4739 19.1556 48.8021 19.3042 49.1255 19.4602C49.4494 19.6165 49.7687 19.7804 50.0836 19.9516C50.3984 20.1228 50.709 20.3017 51.0148 20.4877C51.3202 20.6735 51.621 20.8665 51.9172 21.0668C52.2134 21.267 52.5042 21.474 52.7898 21.6878C53.0757 21.9017 53.3562 22.1222 53.631 22.3491C53.9059 22.576 54.1753 22.8094 54.4391 23.0493C54.7028 23.289 54.9608 23.535 55.2128 23.787C55.4648 24.039 55.7108 24.2969 55.9506 24.5606C56.1903 24.8245 56.4238 25.0939 56.6507 25.3687C56.8779 25.6439 57.0985 25.9245 57.3122 26.21C57.5258 26.4955 57.7329 26.7865 57.9331 27.0825C58.1332 27.3784 58.3263 27.6793 58.5123 27.9852C58.6982 28.2907 58.8768 28.6012 59.0482 28.9163C59.2196 29.2314 59.3836 29.5509 59.5397 29.8744C59.6959 30.1981 59.8444 30.5261 59.9851 30.8581C60.1258 31.1905 60.2586 31.5265 60.3832 31.8662C60.5079 32.2061 60.6246 32.5499 60.7329 32.8973C60.8411 33.2447 60.9411 33.5958 61.0325 33.9501C61.1239 34.3044 61.2065 34.6621 61.2807 35.0234C61.3548 35.3846 61.42 35.7489 61.4763 36.116C61.5325 36.483 61.5797 36.8534 61.6178 37.227C61.6558 37.6001 61.6845 37.9763 61.7038 38.3554C61.7231 38.7345 61.7332 39.1161 61.7332 39.5C61.7332 39.8839 61.7231 40.2654 61.7038 40.6445C61.6845 41.0235 61.6558 41.3998 61.6178 41.7729C61.5797 42.1465 61.5325 42.5168 61.4763 42.8838C61.42 43.251 61.3548 43.6154 61.2807 43.9766C61.2065 44.3378 61.1239 44.6955 61.0325 45.0497C60.9411 45.4041 60.8411 45.7552 60.7329 46.1026C60.6246 46.45 60.5079 46.7938 60.3832 47.1336C60.2586 47.4734 60.1258 47.8095 59.9851 48.1417C59.8443 48.474 59.6958 48.8021 59.5397 49.1255C59.3837 49.4488 59.2197 49.7682 59.0482 50.0836C58.8767 50.3989 58.6981 50.7096 58.5123 51.0148C58.3265 51.3204 58.1333 51.6212 57.9331 51.9173C57.7329 52.2134 57.5258 52.5043 57.3122 52.7899C57.0985 53.0753 56.8779 53.356 56.6507 53.6311C56.4238 53.906 56.1903 54.1754 55.9506 54.4392C55.7105 54.7033 55.4646 54.9612 55.2128 55.2129C54.9611 55.4646 54.7032 55.7106 54.4391 55.9506C54.1753 56.1904 53.9059 56.4238 53.631 56.6508C53.3559 56.878 53.0753 57.0986 52.7898 57.3122C52.5042 57.5259 52.2134 57.733 51.9172 57.9332C51.6211 58.1335 51.3203 58.3266 51.0148 58.5124C50.7095 58.6981 50.3989 58.8768 50.0836 59.0483C49.7682 59.2198 49.4489 59.3838 49.1255 59.5398C48.8021 59.6959 48.4739 59.8443 48.1416 59.9851C47.8094 60.1259 47.4733 60.2587 47.1335 60.3833C46.7937 60.508 46.4499 60.6246 46.1026 60.7329C45.7551 60.8412 45.404 60.9412 45.0497 61.0326C44.6955 61.124 44.3377 61.2067 43.9765 61.2808C43.6152 61.3549 43.2509 61.4203 42.8838 61.4765C42.5168 61.5327 42.1465 61.5799 41.7729 61.618C41.3997 61.656 41.0235 61.6848 40.6446 61.704C40.2654 61.7233 39.8838 61.7332 39.4999 61.7332C39.116 61.7332 38.7344 61.7233 38.3552 61.704C37.9762 61.6848 37.6001 61.656 37.227 61.618C36.8533 61.5799 36.483 61.5327 36.116 61.4765C35.749 61.4203 35.3846 61.3549 35.0233 61.2807C34.6621 61.2066 34.3044 61.124 33.9501 61.0326C33.5958 60.9412 33.2447 60.8412 32.8973 60.7329C32.5499 60.6246 32.2061 60.508 31.8662 60.3833C31.5265 60.2587 31.1904 60.1259 30.8581 59.9851C30.5258 59.8443 30.1978 59.6959 29.8742 59.5398C29.551 59.3838 29.2315 59.2198 28.9161 59.0483C28.6008 58.8768 28.2903 58.6981 27.985 58.5124C27.6796 58.3266 27.3787 58.1335 27.0825 57.9332C26.7864 57.733 26.4955 57.5259 26.21 57.3122C25.9245 57.0986 25.6439 56.878 25.3687 56.6508C25.0939 56.4238 24.8245 56.1904 24.5606 55.9506C24.2966 55.7106 24.0386 55.4646 23.787 55.2129C23.5353 54.9612 23.2893 54.7033 23.0493 54.4392C22.8094 54.1754 22.576 53.906 22.3491 53.6311C22.1218 53.356 21.9012 53.0753 21.6876 52.7899C21.474 52.5043 21.2668 52.2135 21.0667 51.9173C20.8664 51.6211 20.6732 51.3203 20.4875 51.0148C20.3018 50.7096 20.1231 50.399 19.9515 50.0837C19.78 49.7683 19.6161 49.4489 19.4601 49.1256C19.304 48.8022 19.1555 48.474 19.0147 48.1417C18.8739 47.8095 18.7412 47.4734 18.6166 47.1336C18.4919 46.7938 18.3752 46.45 18.2669 46.1026C18.1586 45.7552 18.0586 45.4041 17.9673 45.0497C17.876 44.6956 17.7932 44.3378 17.7191 43.9766C17.645 43.6153 17.5797 43.251 17.5234 42.8838C17.4672 42.5169 17.4199 42.1465 17.3818 41.7729C17.3439 41.3997 17.3152 41.0236 17.2958 40.6446C17.2766 40.2654 17.2666 39.8839 17.2666 39.5C17.2666 39.116 17.2766 38.7344 17.2958 38.3553C17.3152 37.9762 17.3439 37.6001 17.3818 37.227C17.4199 36.8534 17.4672 36.483 17.5234 36.116C17.5797 35.749 17.645 35.3846 17.7191 35.0234C17.7932 34.6621 17.876 34.3044 17.9673 33.9501C18.0586 33.5958 18.1586 33.2447 18.2669 32.8973C18.3752 32.5499 18.4919 32.2062 18.6166 31.8662C18.7412 31.5265 18.8739 31.1905 19.0147 30.8581C19.1554 30.5261 19.3039 30.1981 19.4601 29.8744C19.6162 29.5508 19.7802 29.2313 19.9515 28.9161C20.123 28.6011 20.3016 28.2908 20.4875 27.9852C20.6735 27.6794 20.8666 27.3784 21.0667 27.0825C21.2669 26.7865 21.474 26.4955 21.6876 26.21C21.9012 25.9245 22.1219 25.6439 22.3491 25.3687C22.576 25.0939 22.8094 24.8245 23.0493 24.5606C23.289 24.2969 23.535 24.039 23.787 23.787C24.039 23.535 24.297 23.289 24.5606 23.0493C24.8245 22.8094 25.0939 22.576 25.3687 22.3491C25.6435 22.1223 25.9241 21.9017 26.21 21.6878C26.4955 21.474 26.7865 21.267 27.0825 21.0668C27.3787 20.8665 27.6796 20.6735 27.985 20.4877C28.2909 20.3017 28.6013 20.1228 28.9161 19.9516C29.231 19.7804 29.5505 19.6165 29.8742 19.4603C30.1978 19.3042 30.5258 19.1556 30.8581 19.0148C31.1904 18.8741 31.5265 18.7413 31.8662 18.6167C32.2061 18.492 32.5499 18.3753 32.8973 18.2671C33.2447 18.1588 33.5958 18.0588 33.95 17.9674C34.3043 17.8761 34.6621 17.7934 35.0233 17.7193C35.3846 17.6452 35.7489 17.5797 36.116 17.5235C36.483 17.4673 36.8533 17.42 37.227 17.382C37.6001 17.344 37.9762 17.3153 38.3552 17.296C38.7344 17.2767 39.116 17.2666 39.4999 17.2666Z" fill="#570662"/>
<path d="M13.72 36.8538C13.6757 37.2888 13.6422 37.7271 13.6198 38.1682C13.5973 38.6093 13.5859 39.0532 13.5859 39.4997C13.5859 39.9464 13.5973 40.3903 13.6198 40.8314C13.6422 41.2725 13.6757 41.7107 13.72 42.1457C13.7643 42.5808 13.8193 43.0127 13.885 43.4412C13.9507 43.8696 14.0269 44.2948 14.1133 44.7161C14.1998 45.1375 14.2964 45.5551 14.4031 45.9688C14.5098 46.3826 14.6264 46.7923 14.7528 47.1978C14.8792 47.6033 15.0154 48.0046 15.1608 48.4013C15.3064 48.798 15.4614 49.1902 15.6255 49.5776C15.7896 49.965 15.9629 50.3477 16.1451 50.7253C16.3273 51.1028 16.5184 51.4752 16.7181 51.8424C16.9178 52.2096 17.1261 52.5714 17.3428 52.9276C17.5594 53.2839 17.7844 53.6344 18.0175 53.9791C18.2505 54.3238 18.4917 54.6627 18.7406 54.9953C18.9896 55.328 19.2463 55.6545 19.5106 55.9746C19.7749 56.2947 20.0466 56.6084 20.3257 56.9153C20.6048 57.2222 20.891 57.5226 21.1843 57.8159C21.4775 58.1091 21.7778 58.3953 22.0848 58.6744C22.3917 58.9534 22.7054 59.2252 23.0255 59.4895C23.3456 59.7538 23.6721 60.0105 24.0048 60.2595C24.3375 60.5084 24.6763 60.7495 25.021 60.9826C25.3657 61.2157 25.7163 61.4407 26.0725 61.6574C26.4286 61.8741 26.7905 62.0823 27.1577 62.282C27.5249 62.4817 27.8973 62.6729 28.2748 62.855C28.6525 63.0372 29.0351 63.2105 29.4225 63.3746C29.8099 63.5388 30.2021 63.6938 30.5988 63.8392C30.9955 63.9848 31.3969 64.1209 31.8023 64.2473C32.2078 64.3737 32.6176 64.4903 33.0312 64.597C33.445 64.7037 33.8626 64.8004 34.284 64.8868C34.7053 64.9732 35.1304 65.0495 35.5589 65.1151C35.9874 65.1808 36.4193 65.2359 36.8544 65.2802C37.2894 65.3245 37.7276 65.358 38.1687 65.3803C38.6098 65.4028 39.0537 65.4142 39.5003 65.4142C39.9469 65.4142 40.3908 65.4028 40.8319 65.3803C41.273 65.358 41.7112 65.3245 42.1463 65.2802C42.5813 65.2359 43.0132 65.1808 43.4417 65.1151C43.8703 65.0495 44.2953 64.9732 44.7167 64.8868C45.1381 64.8004 45.5556 64.7037 45.9694 64.597C46.3831 64.4903 46.7928 64.3737 47.1983 64.2473C47.6038 64.1209 48.0051 63.9848 48.4018 63.8392C48.7985 63.6938 49.1907 63.5388 49.5782 63.3746C49.9656 63.2105 50.3482 63.0372 50.7258 62.855C51.1033 62.6729 51.4758 62.4817 51.8429 62.282C52.2101 62.0823 52.572 61.8741 52.9282 61.6574C53.2844 61.4407 53.6349 61.2157 53.9796 60.9826C54.3243 60.7495 54.6632 60.5084 54.9959 60.2595C55.3285 60.0105 55.6551 59.7538 55.9751 59.4895C56.2952 59.2252 56.6089 58.9534 56.9158 58.6744C57.2228 58.3953 57.5231 58.1091 57.8164 57.8159C58.1096 57.5226 58.3959 57.2222 58.6749 56.9153C58.954 56.6084 59.2257 56.2947 59.49 55.9746C59.7543 55.6545 60.0111 55.328 60.2601 54.9953C60.509 54.6627 60.7501 54.3238 60.9831 53.9791C61.2162 53.6344 61.4413 53.2839 61.6579 52.9276C61.8746 52.5714 62.0828 52.2096 62.2825 51.8424C62.4822 51.4752 62.6734 51.1028 62.8555 50.7253C63.0377 50.3477 63.211 49.965 63.3751 49.5776C63.5393 49.1902 63.6942 48.798 63.8398 48.4013C63.9853 48.0046 64.1214 47.6033 64.2478 47.1978C64.3742 46.7923 64.4908 46.3826 64.5975 45.9688C64.7042 45.5551 64.8009 45.1375 64.8873 44.7161C64.9738 44.2948 65.05 43.8696 65.1156 43.4412C65.1813 43.0127 65.2363 42.5808 65.2806 42.1457C65.325 41.7107 65.3584 41.2725 65.3809 40.8314C65.4033 40.3903 65.4147 39.9464 65.4147 39.4997C65.4147 39.0532 65.4033 38.6093 65.3809 38.1682C65.3584 37.7271 65.325 37.2888 65.2806 36.8538C65.2363 36.4187 65.1813 35.9868 65.1156 35.5583C65.05 35.1298 64.9738 34.7048 64.8873 34.2834C64.8009 33.862 64.7042 33.4444 64.5975 33.0307C64.4908 32.617 64.3742 32.2072 64.2478 31.8018C64.1214 31.3963 63.9853 30.995 63.8398 30.5983C63.6942 30.2016 63.5393 29.8094 63.3751 29.4219C63.211 29.0345 63.0377 28.6519 62.8555 28.2744C62.6734 27.8968 62.4822 27.5243 62.2825 27.1572C62.0828 26.79 61.8746 26.4282 61.6579 26.072C61.4413 25.7157 61.2162 25.3652 60.9831 25.0204C60.7501 24.6757 60.509 24.3369 60.2601 24.0042C60.0111 23.6715 59.7543 23.3449 59.49 23.0249C59.2257 22.7048 58.954 22.3912 58.6749 22.0843C58.3959 21.7773 58.1096 21.4771 57.8164 21.1838C57.5231 20.8906 57.2228 20.6041 56.9158 20.3252C56.6089 20.0461 56.2952 19.7743 55.9751 19.51C55.6551 19.2458 55.3285 18.9891 54.9959 18.7401C54.6632 18.4912 54.3243 18.2501 53.9796 18.017C53.6349 17.7839 53.2844 17.5589 52.9282 17.3422C52.572 17.1256 52.2101 16.9172 51.8429 16.7176C51.4758 16.5178 51.1033 16.3268 50.7258 16.1446C50.3482 15.9625 49.9656 15.7892 49.5782 15.625C49.1907 15.4609 48.7985 15.3059 48.4018 15.1604C48.0051 15.0148 47.6038 14.8787 47.1983 14.7524C46.7928 14.626 46.3831 14.5093 45.9694 14.4026C45.5556 14.2959 45.1381 14.1993 44.7167 14.1128C44.2953 14.0264 43.8703 13.9502 43.4417 13.8845C43.0132 13.8189 42.5813 13.7638 42.1463 13.7195C41.7112 13.6752 41.273 13.6417 40.8319 13.6193C40.3908 13.5968 39.9469 13.5854 39.5003 13.5854C39.0537 13.5854 38.6098 13.5968 38.1687 13.6193C37.7276 13.6417 37.2894 13.6752 36.8544 13.7195C36.4193 13.7638 35.9874 13.8189 35.5589 13.8845C35.1304 13.9502 34.7053 14.0264 34.284 14.1128C33.8626 14.1993 33.445 14.2959 33.0312 14.4026C32.6176 14.5093 32.2078 14.626 31.8023 14.7524C31.3969 14.8787 30.9955 15.0148 30.5988 15.1604C30.2021 15.3059 29.8099 15.4609 29.4225 15.625C29.0351 15.7892 28.6525 15.9625 28.2748 16.1446C27.8973 16.3268 27.5249 16.5178 27.1577 16.7176C26.7905 16.9172 26.4286 17.1256 26.0725 17.3422C25.7163 17.5589 25.3657 17.7839 25.021 18.017C24.6763 18.2501 24.3375 18.4912 24.0048 18.7401C23.6721 18.9891 23.3456 19.2458 23.0255 19.51C22.7054 19.7743 22.3917 20.0461 22.0848 20.3252C21.7778 20.6041 21.4775 20.8906 21.1843 21.1838C20.891 21.4771 20.6048 21.7773 20.3257 22.0843C20.0466 22.3912 19.7749 22.7048 19.5106 23.0249C19.2463 23.3449 18.9896 23.6715 18.7406 24.0042C18.4917 24.3369 18.2505 24.6757 18.0175 25.0204C17.7844 25.3652 17.5594 25.7157 17.3428 26.072C17.1261 26.4282 16.9178 26.79 16.7181 27.1572C16.5184 27.5243 16.3273 27.8968 16.1451 28.2744C15.9629 28.6519 15.7896 29.0345 15.6255 29.4219C15.4614 29.8094 15.3064 30.2016 15.1608 30.5983C15.0154 30.995 14.8792 31.3963 14.7528 31.8018C14.6264 32.2072 14.5098 32.617 14.4031 33.0307C14.2964 33.4444 14.1998 33.862 14.1133 34.2834C14.0269 34.7048 13.9507 35.1298 13.885 35.5583C13.8193 35.9868 13.7643 36.4187 13.72 36.8538ZM39.5003 17.2665C39.8847 17.2665 40.2668 17.2762 40.6464 17.2953C41.0259 17.3145 41.4029 17.3432 41.7772 17.381C42.1514 17.4189 42.5227 17.4659 42.8912 17.5221C43.2596 17.5782 43.6251 17.6433 43.9873 17.7173C44.3496 17.7911 44.7085 17.8738 45.064 17.965C45.4195 18.0563 45.7716 18.156 46.12 18.2641C46.4683 18.3722 46.8129 18.4887 47.1536 18.6132C47.4943 18.7377 47.831 18.8702 48.1636 19.0106C48.4963 19.1511 48.8247 19.2993 49.1488 19.4553C49.4729 19.6111 49.7926 19.7747 50.1077 19.9455C50.4228 20.1165 50.7332 20.2947 51.0388 20.4802C51.3443 20.6656 51.6451 20.8582 51.9407 21.0578C52.2364 21.2573 52.5269 21.4638 52.8122 21.6771C53.0974 21.8902 53.3774 22.1101 53.6518 22.3364C53.9262 22.5627 54.195 22.7956 54.458 23.0347C54.7211 23.2737 54.9785 23.519 55.2298 23.7702C55.4811 24.0216 55.7263 24.2789 55.9654 24.542C56.2045 24.8051 56.4373 25.0739 56.6637 25.3482C56.89 25.6227 57.1099 25.9027 57.323 26.1879C57.5362 26.4732 57.7427 26.7637 57.9423 27.0593C58.1418 27.355 58.3344 27.6557 58.5199 27.9613C58.7053 28.2669 58.8835 28.5773 59.0545 28.8924C59.2254 29.2074 59.3889 29.5272 59.5448 29.8512C59.7007 30.1753 59.849 30.5038 59.9894 30.8365C60.1298 31.169 60.2624 31.5058 60.3868 31.8465C60.5114 32.1872 60.6279 32.5318 60.7359 32.8801C60.844 33.2285 60.9438 33.5805 61.035 33.9361C61.1262 34.2916 61.2089 34.6505 61.2828 35.0127C61.3567 35.3749 61.4218 35.7404 61.4779 36.1089C61.5341 36.4773 61.5811 36.8487 61.6191 37.2229C61.6569 37.5972 61.6855 37.9741 61.7047 38.3537C61.7238 38.7333 61.7335 39.1153 61.7335 39.4997C61.7335 39.8841 61.7238 40.2663 61.7047 40.6458C61.6855 41.0253 61.6569 41.4024 61.6191 41.7766C61.5811 42.1508 61.5341 42.5222 61.4779 42.8907C61.4218 43.2591 61.3567 43.6246 61.2828 43.9868C61.2089 44.349 61.1262 44.708 61.035 45.0635C60.9438 45.419 60.844 45.771 60.7359 46.1194C60.6279 46.4677 60.5114 46.8124 60.3868 47.1531C60.2624 47.4938 60.1298 47.8304 59.9894 48.1631C59.849 48.4957 59.7007 48.8242 59.5448 49.1482C59.3889 49.4724 59.2254 49.7921 59.0545 50.1072C58.8835 50.4222 58.7053 50.7326 58.5199 51.0381C58.3344 51.3437 58.1418 51.6446 57.9423 51.9402C57.7427 52.2358 57.5362 52.5264 57.323 52.8116C57.1099 53.0969 56.89 53.3769 56.6637 53.6512C56.4373 53.9257 56.2045 54.1944 55.9654 54.4575C55.7263 54.7205 55.4811 54.978 55.2298 55.2292C54.9785 55.4806 54.7211 55.7258 54.458 55.9649C54.195 56.2039 53.9262 56.4368 53.6518 56.6631C53.3774 56.8895 53.0974 57.1093 52.8122 57.3225C52.5269 57.5357 52.2364 57.7422 51.9407 57.9417C51.6451 58.1413 51.3443 58.3339 51.0388 58.5194C50.7332 58.7048 50.4228 58.883 50.1077 59.0539C49.7926 59.2249 49.4729 59.3884 49.1488 59.5443C48.8247 59.7002 48.4963 59.8485 48.1636 59.9889C47.831 60.1293 47.4943 60.2619 47.1536 60.3863C46.8129 60.5109 46.4683 60.6273 46.12 60.7354C45.7716 60.8435 45.4195 60.9433 45.064 61.0345C44.7085 61.1257 44.3496 61.2084 43.9873 61.2823C43.6251 61.3562 43.2596 61.4213 42.8912 61.4775C42.5227 61.5336 42.1514 61.5806 41.7772 61.6185C41.4029 61.6564 41.0259 61.685 40.6464 61.7042C40.2668 61.7233 39.8847 61.7331 39.5003 61.7331C39.1159 61.7331 38.7338 61.7233 38.3543 61.7042C37.9748 61.685 37.5977 61.6564 37.2235 61.6185C36.8492 61.5806 36.4779 61.5336 36.1094 61.4775C35.741 61.4213 35.3755 61.3562 35.0133 61.2823C34.6511 61.2084 34.2921 61.1257 33.9366 61.0345C33.5811 60.9433 33.2291 60.8435 32.8807 60.7354C32.5323 60.6273 32.1877 60.5109 31.847 60.3863C31.5063 60.2619 31.1697 60.1293 30.837 59.9889C30.5043 59.8485 30.1759 59.7002 29.8518 59.5443C29.5277 59.3884 29.208 59.2249 28.8929 59.0539C28.5779 58.883 28.2675 58.7048 27.9619 58.5194C27.6563 58.3339 27.3556 58.1413 27.0599 57.9417C26.7642 57.7422 26.4738 57.5357 26.1885 57.3225C25.9033 57.1093 25.6232 56.8895 25.3489 56.6631C25.0745 56.4368 24.8057 56.2039 24.5426 55.9649C24.2795 55.7258 24.0222 55.4806 23.7708 55.2292C23.5196 54.978 23.2743 54.7205 23.0352 54.4575C22.7962 54.1944 22.5633 53.9257 22.337 53.6512C22.1107 53.3769 21.8908 53.0969 21.6776 52.8116C21.4645 52.5264 21.2579 52.2358 21.0583 51.9402C20.8589 51.6446 20.6662 51.3437 20.4808 51.0381C20.2953 50.7326 20.1171 50.4222 19.9461 50.1072C19.7752 49.7921 19.6117 49.4724 19.4558 49.1482C19.2999 48.8242 19.1516 48.4957 19.0112 48.1631C18.8708 47.8304 18.7382 47.4938 18.6138 47.1531C18.4893 46.8124 18.3728 46.4677 18.2647 46.1194C18.1567 45.771 18.0568 45.419 17.9656 45.0635C17.8744 44.708 17.7918 44.349 17.7178 43.9868C17.6439 43.6246 17.5788 43.2591 17.5227 42.8907C17.4666 42.5222 17.4195 42.1508 17.3816 41.7766C17.3437 41.4024 17.3151 41.0253 17.296 40.6458C17.2768 40.2663 17.2671 39.8841 17.2671 39.4997C17.2671 39.1153 17.2768 38.7333 17.296 38.3537C17.3151 37.9741 17.3437 37.5972 17.3816 37.2229C17.4195 36.8487 17.4666 36.4773 17.5227 36.1089C17.5788 35.7404 17.6439 35.3749 17.7178 35.0127C17.7918 34.6505 17.8744 34.2916 17.9656 33.9361C18.0568 33.5805 18.1567 33.2285 18.2647 32.8801C18.3728 32.5318 18.4893 32.1872 18.6138 31.8465C18.7382 31.5058 18.8708 31.169 19.0112 30.8365C19.1516 30.5038 19.2999 30.1753 19.4558 29.8512C19.6117 29.5272 19.7752 29.2074 19.9461 28.8924C20.1171 28.5773 20.2953 28.2669 20.4808 27.9613C20.6662 27.6557 20.8589 27.355 21.0583 27.0593C21.2579 26.7637 21.4645 26.4732 21.6776 26.1879C21.8908 25.9027 22.1107 25.6227 22.337 25.3482C22.5633 25.0739 22.7962 24.8051 23.0352 24.542C23.2743 24.2789 23.5196 24.0216 23.7708 23.7702C24.0222 23.519 24.2795 23.2737 24.5426 23.0347C24.8057 22.7955 25.0745 22.5627 25.3489 22.3364C25.6232 22.1101 25.9033 21.8902 26.1885 21.6771C26.4738 21.4638 26.7642 21.2573 27.0599 21.0578C27.3556 20.8582 27.6563 20.6656 27.9619 20.4802C28.2675 20.2947 28.5779 20.1165 28.8929 19.9455C29.208 19.7747 29.5277 19.6111 29.8518 19.4553C30.1759 19.2993 30.5043 19.1511 30.837 19.0106C31.1697 18.8702 31.5063 18.7377 31.847 18.6132C32.1877 18.4887 32.5323 18.3722 32.8807 18.2641C33.2291 18.156 33.5811 18.0563 33.9366 17.965C34.2921 17.8738 34.6511 17.7911 35.0133 17.7173C35.3755 17.6433 35.741 17.5782 36.1094 17.5221C36.4779 17.4659 36.8492 17.4189 37.2235 17.381C37.5977 17.3432 37.9748 17.3145 38.3543 17.2953C38.7338 17.2762 39.1159 17.2665 39.5003 17.2665Z" fill="black"/>
<path d="M39.5 6C21.0865 6 6 21.0864 6 39.4999C6 57.9135 21.0865 73 39.5 73C57.9135 73 73 57.9135 73 39.4999C73 21.0864 57.9135 6 39.5 6ZM39.5 9.68124C55.9075 9.68124 69.3188 23.0924 69.3188 39.4999C69.3188 55.9075 55.9075 69.3188 39.5 69.3188C23.7105 69.3188 10.6961 56.8988 9.73811 41.3407H13.6508C13.6697 41.6102 13.6925 41.8788 13.7197 42.1459C13.6754 41.7108 13.6419 41.2727 13.6194 40.8315C13.597 40.3904 13.5856 39.9465 13.5856 39.4999C13.5856 39.0534 13.597 38.6095 13.6194 38.1684C13.6419 37.7273 13.6754 37.289 13.7197 36.854C13.6925 37.1212 13.6697 37.3898 13.6508 37.6593H9.73811C10.6962 22.1013 23.7105 9.68124 39.5 9.68124Z" fill="#570662"/>
</g>
</g>
<defs>
<clipPath id="clip0_698_91">
<rect width="67" height="67" fill="white" transform="translate(6 6)"/>
</clipPath>
</defs>
</svg>
